<mxfile host="app.diagrams.net" modified="2024-05-22T11:00:14.816Z" agent="Mozilla/5.0 (Windows NT 10.0; Win64; x64) AppleWebKit/537.36 (KHTML, like Gecko) Chrome/121.0.0.0 Safari/537.36" version="24.4.5" etag="1Ja5MD0MyRU8pXH9REB-" type="github">
  <diagram name="PÃ¡gina-1" id="uGq3xG5X4b6eXHFz4kHt">
    <mxGraphModel>
      <root>
        <mxCell id="0" />
        <mxCell id="1" parent="0" />
      </root>
    </mxGraphModel>
  </diagram>
</mxfile>
